<svg xmlns="http://www.w3.org/2000/svg" width="401" height="378" viewBox="0 0 401 378">
<g fill="black" stroke="none">
<path d="M 41.0,40.5 L 40.5,39.0 L 41.0,37.5 L 42.0,36.5 L 42.5,35.0 L 43.5,34.0 L 44.5,33.0 L 45.5,32.0 L 46.5,32.0 L 46.0,33.5 L 45.0,34.5 L 44.5,36.0 L 43.5,37.0 L 42.5,38.0 L 41.5,39.0 L 41.0,40.5 Z"/>
<path d="M 0.0,161.5 L 0.5,160.0 L 0.5,158.0 L 0.5,156.0 L 0.5,154.0 L 0.5,152.0 L 1.0,150.5 L 1.5,149.0 L 1.0,147.5 L 0.5,146.0 L 1.5,145.0 L 1.5,143.0 L 2.5,142.0 L 1.5,141.0 L 1.5,139.0 L 2.0,137.5 L 2.5,136.0 L 2.5,134.0 L 2.5,132.0 L 3.0,130.5 L 3.5,129.0 L 3.5,127.0 L 4.5,126.0 L 4.5,124.0 L 5.5,123.0 L 5.5,121.0 L 5.5,119.0 L 6.0,117.5 L 6.5,116.0 L 6.5,114.0 L 7.5,113.0 L 8.0,111.5 L 8.0,110.5 L 8.0,109.5 L 8.0,108.5 L 8.0,107.5 L 8.5,106.0 L 9.0,104.5 L 9.5,103.0 L 10.0,101.5 L 10.5,100.0 L 11.5,99.0 L 11.5,97.0 L 12.5,96.0 L 12.5,94.0 L 13.5,93.0 L 13.5,91.0 L 14.0,89.5 L 14.5,88.0 L 15.5,87.0 L 16.0,85.5 L 16.5,84.0 L 17.0,82.5 L 17.5,81.0 L 18.5,80.0 L 18.5,78.0 L 19.5,77.0 L 19.5,75.0 L 21.0,74.5 L 21.0,73.5 L 20.5,72.0 L 21.5,71.0 L 22.0,69.5 L 23.5,69.0 L 23.5,67.0 L 24.0,65.5 L 25.0,64.5 L 26.0,63.5 L 26.5,62.0 L 27.5,61.0 L 28.0,59.5 L 29.0,58.5 L 29.5,60.0 L 29.0,61.5 L 28.5,63.0 L 27.5,64.0 L 27.0,65.5 L 26.0,66.5 L 25.5,68.0 L 25.0,69.5 L 24.5,71.0 L 23.5,72.0 L 23.5,74.0 L 22.5,75.0 L 22.0,76.5 L 21.5,78.0 L 21.0,79.5 L 20.5,81.0 L 19.5,82.0 L 19.5,84.0 L 18.5,85.0 L 18.5,87.0 L 17.5,88.0 L 17.5,90.0 L 16.5,91.0 L 16.5,93.0 L 15.5,94.0 L 15.5,96.0 L 14.5,97.0 L 14.5,99.0 L 14.0,100.5 L 13.5,102.0 L 13.0,103.5 L 12.5,105.0 L 12.5,107.0 L 11.5,108.0 L 11.5,110.0 L 11.5,112.0 L 10.5,113.0 L 10.5,115.0 L 10.0,116.5 L 9.5,118.0 L 9.5,120.0 L 9.5,122.0 L 8.5,123.0 L 8.5,125.0 L 8.5,127.0 L 8.0,128.5 L 7.5,130.0 L 7.5,132.0 L 7.5,134.0 L 7.5,136.0 L 6.5,137.0 L 6.5,139.0 L 6.5,141.0 L 6.5,143.0 L 6.5,145.0 L 6.5,147.0 L 6.5,149.0 L 6.5,151.0 L 6.0,152.5 L 6.0,153.5 L 6.0,154.5 L 5.5,156.0 L 5.5,158.0 L 5.5,160.0 L 6.5,161.0 L 6.5,163.0 L 6.5,165.0 L 6.5,167.0 L 6.5,169.0 L 6.5,171.0 L 6.5,173.0 L 6.5,175.0 L 6.5,177.0 L 6.5,179.0 L 7.5,180.0 L 7.5,182.0 L 7.5,184.0 L 7.5,186.0 L 8.0,187.5 L 8.5,189.0 L 8.5,191.0 L 8.5,193.0 L 9.5,194.0 L 9.5,196.0 L 9.5,198.0 L 10.5,199.0 L 10.5,201.0 L 10.5,203.0 L 11.5,204.0 L 11.5,206.0 L 12.0,207.5 L 12.5,209.0 L 12.5,211.0 L 13.5,212.0 L 13.5,214.0 L 14.5,215.0 L 14.5,217.0 L 15.0,218.5 L 15.5,220.0 L 16.0,221.5 L 16.5,223.0 L 17.0,224.5 L 17.5,226.0 L 18.0,227.5 L 18.5,229.0 L 19.5,230.0 L 19.5,232.0 L 20.5,233.0 L 21.0,234.5 L 21.5,236.0 L 22.0,237.5 L 22.5,239.0 L 23.5,240.0 L 24.0,241.5 L 24.5,243.0 L 25.0,244.5 L 25.5,246.0 L 26.5,247.0 L 27.0,248.5 L 27.5,250.0 L 28.5,251.0 L 29.0,252.5 L 29.5,254.0 L 30.5,255.0 L 31.0,256.5 L 31.5,258.0 L 32.5,259.0 L 33.5,260.0 L 34.0,261.5 L 34.5,263.0 L 35.5,264.0 L 36.0,265.5 L 36.5,267.0 L 37.5,268.0 L 38.5,269.0 L 39.0,270.5 L 40.0,271.5 L 40.5,273.0 L 41.5,274.0 L 42.5,275.0 L 43.0,276.5 L 44.0,277.5 L 44.5,279.0 L 45.5,280.0 L 46.5,281.0 L 47.0,282.5 L 48.0,283.5 L 49.0,284.5 L 49.5,286.0 L 50.5,287.0 L 51.5,288.0 L 52.5,289.0 L 53.5,290.0 L 54.0,291.5 L 55.0,292.5 L 56.0,293.5 L 57.0,294.5 L 58.0,295.5 L 59.0,296.5 L 60.0,297.5 L 60.5,299.0 L 61.5,300.0 L 62.5,301.0 L 63.5,302.0 L 64.5,303.0 L 65.5,304.0 L 66.5,305.0 L 67.5,306.0 L 68.5,307.0 L 69.5,308.0 L 70.5,309.0 L 71.5,310.0 L 72.5,311.0 L 73.5,312.0 L 75.0,312.5 L 76.0,313.5 L 77.0,314.5 L 78.0,315.5 L 79.0,316.5 L 80.0,317.5 L 81.0,318.5 L 82.5,319.0 L 83.5,320.0 L 84.5,321.0 L 85.5,322.0 L 87.0,322.5 L 88.0,323.5 L 89.0,324.5 L 90.0,325.5 L 91.5,326.0 L 92.5,327.0 L 94.0,327.5 L 95.0,328.5 L 96.0,329.5 L 97.5,330.0 L 98.5,331.0 L 100.0,331.5 L 101.0,332.5 L 102.0,333.5 L 103.5,334.0 L 104.5,335.0 L 106.0,335.5 L 107.0,336.5 L 108.5,337.0 L 110.0,337.5 L 111.0,338.5 L 112.5,339.0 L 114.0,339.5 L 115.0,340.5 L 116.0,341.5 L 117.5,342.0 L 119.0,342.5 L 120.0,343.5 L 122.0,343.5 L 123.0,344.5 L 124.5,345.0 L 126.0,345.5 L 127.0,346.5 L 128.5,347.0 L 130.0,347.5 L 131.5,348.0 L 133.0,348.5 L 134.0,349.5 L 136.0,349.5 L 137.0,350.5 L 139.0,350.5 L 140.0,351.5 L 142.0,351.5 L 143.0,352.5 L 145.0,352.5 L 146.0,353.5 L 148.0,353.5 L 149.0,354.5 L 151.0,354.5 L 152.0,355.5 L 154.0,355.5 L 155.5,356.0 L 157.0,356.5 L 159.0,356.5 L 160.5,357.0 L 162.0,357.5 L 164.0,357.5 L 165.5,358.0 L 167.0,358.5 L 169.0,358.5 L 170.5,359.0 L 172.0,359.5 L 174.0,359.5 L 176.0,359.5 L 177.5,360.0 L 179.0,360.5 L 181.0,360.5 L 183.0,360.5 L 185.0,360.5 L 187.0,360.5 L 188.5,361.0 L 190.0,361.5 L 192.0,361.5 L 194.0,361.5 L 196.0,361.5 L 198.0,361.5 L 200.0,361.5 L 202.0,361.5 L 204.0,361.5 L 206.0,361.5 L 208.0,361.5 L 210.0,361.5 L 212.0,361.5 L 213.5,361.0 L 215.0,360.5 L 217.0,360.5 L 219.0,360.5 L 221.0,360.5 L 222.5,360.0 L 224.0,359.5 L 226.0,359.5 L 228.0,359.5 L 229.0,358.5 L 231.0,358.5 L 233.0,358.5 L 234.5,358.0 L 236.0,357.5 L 238.0,357.5 L 239.5,357.0 L 241.0,356.5 L 243.0,356.5 L 244.0,355.5 L 246.0,355.5 L 247.5,355.0 L 249.0,354.5 L 251.0,354.5 L 252.0,353.5 L 254.0,353.5 L 255.0,352.5 L 257.0,352.5 L 258.0,351.5 L 260.0,351.5 L 261.0,350.5 L 263.0,350.5 L 264.0,349.5 L 266.0,349.5 L 267.0,348.5 L 268.5,348.0 L 270.0,347.5 L 271.5,347.0 L 273.0,346.5 L 274.0,345.5 L 275.5,345.0 L 277.0,344.5 L 278.0,343.5 L 279.5,343.0 L 281.0,342.5 L 282.0,341.5 L 283.5,341.0 L 285.0,340.5 L 286.0,339.5 L 287.5,339.0 L 289.0,338.5 L 290.0,337.5 L 291.5,337.0 L 293.0,336.5 L 294.0,335.5 L 295.0,334.5 L 296.5,334.0 L 297.5,333.0 L 299.0,332.5 L 300.0,331.5 L 301.5,331.0 L 302.5,330.0 L 304.0,329.5 L 305.0,328.5 L 306.0,327.5 L 307.5,327.0 L 308.5,326.0 L 309.5,325.0 L 311.0,324.5 L 312.0,323.5 L 313.0,322.5 L 314.0,321.5 L 315.5,321.0 L 316.5,320.0 L 317.5,319.0 L 318.5,318.0 L 320.0,317.5 L 321.0,316.5 L 322.0,315.5 L 323.0,314.5 L 324.0,313.5 L 325.0,312.5 L 326.0,311.5 L 327.0,310.5 L 328.5,310.0 L 329.5,309.0 L 330.5,308.0 L 331.5,307.0 L 332.5,306.0 L 333.5,305.0 L 334.5,304.0 L 335.5,303.0 L 336.5,302.0 L 337.5,301.0 L 338.0,299.5 L 339.0,298.5 L 340.0,297.5 L 341.0,296.5 L 342.0,295.5 L 343.0,294.5 L 344.0,293.5 L 345.0,292.5 L 345.5,291.0 L 346.5,290.0 L 347.5,289.0 L 348.5,288.0 L 349.5,287.0 L 350.0,285.5 L 351.0,284.5 L 352.0,283.5 L 352.5,282.0 L 353.5,281.0 L 354.5,280.0 L 355.5,279.0 L 356.0,277.5 L 357.0,276.5 L 357.5,275.0 L 358.5,274.0 L 359.5,273.0 L 360.0,271.5 L 361.0,270.5 L 361.5,269.0 L 362.5,268.0 L 363.0,266.5 L 364.0,265.5 L 364.5,264.0 L 365.5,263.0 L 366.0,261.5 L 367.0,260.5 L 367.5,259.0 L 368.5,258.0 L 369.0,256.5 L 369.5,255.0 L 370.5,254.0 L 371.0,252.5 L 371.5,251.0 L 372.5,250.0 L 373.0,248.5 L 373.5,247.0 L 374.5,246.0 L 375.0,244.5 L 375.5,243.0 L 376.5,242.0 L 377.0,240.5 L 377.5,239.0 L 378.0,237.5 L 378.5,236.0 L 379.5,235.0 L 379.5,233.0 L 380.5,232.0 L 380.5,230.0 L 381.5,229.0 L 382.0,227.5 L 382.5,226.0 L 383.0,224.5 L 383.5,223.0 L 383.5,221.0 L 384.5,220.0 L 384.5,218.0 L 385.5,217.0 L 385.5,215.0 L 386.5,214.0 L 386.5,212.0 L 387.0,210.5 L 387.5,209.0 L 387.5,207.0 L 388.5,206.0 L 388.5,204.0 L 389.0,202.5 L 389.5,201.0 L 389.5,199.0 L 390.0,197.5 L 390.5,196.0 L 390.5,194.0 L 390.5,192.0 L 391.5,191.0 L 391.5,189.0 L 391.5,187.0 L 391.5,185.0 L 392.5,184.0 L 392.5,182.0 L 392.5,180.0 L 392.5,178.0 L 392.5,176.0 L 393.5,175.0 L 393.5,173.0 L 393.5,171.0 L 393.5,169.0 L 393.5,167.0 L 393.5,165.0 L 393.5,163.0 L 393.5,161.0 L 393.5,159.0 L 393.5,157.0 L 393.5,155.0 L 393.5,153.0 L 393.5,151.0 L 393.5,149.0 L 393.5,147.0 L 393.5,145.0 L 393.5,143.0 L 392.5,142.0 L 392.5,140.0 L 392.5,138.0 L 392.5,136.0 L 392.5,134.0 L 392.0,132.5 L 391.5,131.0 L 391.5,129.0 L 391.5,127.0 L 391.0,125.5 L 390.5,124.0 L 390.5,122.0 L 390.5,120.0 L 389.5,119.0 L 389.5,117.0 L 389.5,115.0 L 388.5,114.0 L 388.5,112.0 L 388.5,110.0 L 387.5,109.0 L 387.5,107.0 L 387.0,105.5 L 386.5,104.0 L 386.5,102.0 L 385.5,101.0 L 385.5,99.0 L 384.5,98.0 L 384.5,96.0 L 384.0,94.5 L 383.5,93.0 L 383.0,91.5 L 382.5,90.0 L 382.0,88.5 L 381.5,87.0 L 381.0,85.5 L 380.5,84.0 L 380.0,82.5 L 379.5,81.0 L 378.5,80.0 L 378.5,78.0 L 377.5,77.0 L 377.5,75.0 L 376.5,74.0 L 376.0,72.5 L 375.5,71.0 L 374.5,70.0 L 374.0,68.5 L 373.5,67.0 L 373.0,65.5 L 372.5,64.0 L 371.5,63.0 L 371.0,61.5 L 370.5,60.0 L 369.5,59.0 L 368.5,58.0 L 368.0,56.5 L 367.5,55.0 L 366.5,54.0 L 366.0,52.5 L 365.5,51.0 L 364.5,50.0 L 364.0,48.5 L 363.0,47.5 L 362.5,46.0 L 361.5,45.0 L 360.5,44.0 L 360.0,42.5 L 359.5,41.0 L 358.5,40.0 L 357.5,39.0 L 357.0,37.5 L 356.0,36.5 L 355.5,35.0 L 354.5,34.0 L 356.0,33.5 L 356.5,35.0 L 357.5,36.0 L 358.5,37.0 L 359.5,38.0 L 360.0,39.5 L 360.5,41.0 L 361.5,42.0 L 362.5,43.0 L 363.5,44.0 L 363.5,46.0 L 364.5,47.0 L 365.5,48.0 L 366.5,49.0 L 367.0,50.5 L 368.0,51.5 L 368.5,53.0 L 369.5,54.0 L 370.0,55.5 L 371.0,56.5 L 372.0,57.5 L 372.5,59.0 L 373.0,60.5 L 373.5,62.0 L 374.5,63.0 L 375.0,64.5 L 376.0,65.5 L 376.5,67.0 L 376.5,69.0 L 378.0,69.5 L 378.5,71.0 L 379.5,72.0 L 379.5,74.0 L 380.5,75.0 L 381.5,76.0 L 381.5,78.0 L 382.5,79.0 L 383.5,80.0 L 384.0,81.5 L 384.0,82.5 L 384.0,83.5 L 384.5,85.0 L 385.0,86.5 L 386.0,87.5 L 386.5,89.0 L 386.5,91.0 L 387.5,92.0 L 388.0,93.5 L 388.5,95.0 L 388.5,97.0 L 389.5,98.0 L 389.5,100.0 L 390.5,101.0 L 390.5,103.0 L 391.0,104.5 L 391.5,106.0 L 392.0,107.5 L 392.5,109.0 L 392.5,111.0 L 392.5,113.0 L 393.5,114.0 L 394.0,115.5 L 394.5,117.0 L 394.5,119.0 L 395.0,120.5 L 395.5,122.0 L 395.5,124.0 L 396.5,125.0 L 396.5,127.0 L 397.5,128.0 L 396.5,129.0 L 396.5,131.0 L 397.5,132.0 L 397.5,134.0 L 398.0,135.5 L 398.5,137.0 L 398.5,139.0 L 398.5,141.0 L 398.5,143.0 L 399.0,144.5 L 399.5,146.0 L 399.5,148.0 L 399.5,150.0 L 399.5,152.0 L 399.5,154.0 L 399.5,156.0 Z"/>
<path d="M 34.0,51.5 L 33.5,50.0 L 34.0,48.5 L 35.0,47.5 L 35.5,46.0 L 36.5,45.0 L 37.5,44.0 L 38.0,42.5 L 39.0,41.5 L 40.0,40.5 L 40.5,42.0 L 39.5,43.0 L 38.5,44.0 L 38.0,45.5 L 37.0,46.5 L 36.5,48.0 L 35.5,49.0 L 35.0,50.5 L 34.0,51.5 Z"/>
<path d="M 30.0,58.5 L 29.5,57.0 L 30.0,55.5 L 31.0,54.5 L 32.0,53.5 L 32.5,55.0 L 31.5,56.0 L 31.0,57.5 L 30.0,58.5 Z"/>
<path d="M 276.0,313.5 L 274.0,313.5 L 272.0,313.5 L 270.0,313.5 L 268.0,313.5 L 267.0,312.5 L 265.0,312.5 L 263.5,312.0 L 262.0,311.5 L 260.5,311.0 L 259.0,310.5 L 258.0,309.5 L 256.5,309.0 L 255.0,308.5 L 254.0,307.5 L 253.0,306.5 L 251.5,306.0 L 250.5,305.0 L 249.5,304.0 L 248.5,303.0 L 247.5,302.0 L 246.5,301.0 L 245.5,300.0 L 245.0,298.5 L 244.0,297.5 L 243.0,296.5 L 242.5,295.0 L 241.5,294.0 L 240.5,293.0 L 240.0,291.5 L 239.0,290.5 L 238.5,289.0 L 237.5,288.0 L 236.5,287.0 L 235.5,286.0 L 234.0,285.5 L 233.0,284.5 L 231.0,284.5 L 230.0,283.5 L 228.0,283.5 L 226.0,283.5 L 224.0,283.5 L 222.0,283.5 L 220.0,283.5 L 218.0,283.5 L 216.0,283.5 L 214.0,283.5 L 212.0,283.5 L 210.0,283.5 L 208.0,283.5 L 206.0,283.5 L 204.0,283.5 L 202.0,283.5 L 200.0,283.5 L 198.0,283.5 L 196.0,283.5 L 194.0,283.5 L 192.0,283.5 L 190.0,283.5 L 188.0,283.5 L 186.0,283.5 L 184.0,283.5 L 182.0,283.5 L 180.0,283.5 L 178.0,283.5 L 176.0,283.5 L 174.0,283.5 L 172.0,283.5 L 170.0,283.5 L 168.0,283.5 L 166.0,283.5 L 165.0,284.5 L 163.0,284.5 L 162.0,285.5 L 160.5,286.0 L 159.5,287.0 L 158.5,288.0 L 157.5,289.0 L 157.0,290.5 L 156.0,291.5 L 155.5,293.0 L 154.5,294.0 L 153.5,295.0 L 152.5,296.0 L 152.0,297.5 L 151.0,298.5 L 150.5,300.0 L 149.5,301.0 L 148.5,302.0 L 147.5,303.0 L 146.5,304.0 L 145.5,305.0 L 144.5,306.0 L 143.0,306.5 L 142.0,307.5 L 141.0,308.5 L 139.5,309.0 L 138.0,309.5 L 137.0,310.5 L 135.5,311.0 L 134.0,311.5 L 132.5,312.0 L 131.0,312.5 L 129.0,312.5 L 127.5,313.0 L 126.0,313.5 L 124.0,313.5 L 122.0,313.5 L 120.0,313.5 L 118.5,313.0 L 117.0,312.5 L 115.0,312.5 L 113.5,312.0 L 112.0,311.5 L 111.0,310.5 L 109.5,310.0 L 108.0,309.5 L 107.0,308.5 L 105.5,308.0 L 104.0,307.5 L 103.0,306.5 L 102.0,305.5 L 100.5,305.0 L 99.5,304.0 L 98.5,303.0 L 97.5,302.0 L 96.5,301.0 L 96.0,299.5 L 95.0,298.5 L 94.5,297.0 L 93.5,296.0 L 92.5,295.0 L 92.0,293.5 L 91.5,292.0 L 91.0,290.5 L 90.5,289.0 L 89.5,288.0 L 89.5,286.0 L 89.0,284.5 L 88.5,286.0 L 87.5,286.0 L 86.5,285.0 L 86.5,283.0 L 86.5,281.0 L 87.5,281.0 L 88.0,282.5 L 88.5,281.0 L 88.5,279.0 L 88.5,277.0 L 88.5,275.0 L 88.5,273.0 L 88.5,271.0 L 88.5,269.0 L 89.0,267.5 L 89.5,266.0 L 89.5,264.0 L 90.0,262.5 L 90.0,261.5 L 89.0,260.5 L 87.0,260.5 L 86.0,259.5 L 84.5,259.0 L 83.0,258.5 L 82.0,257.5 L 80.5,257.0 L 79.5,256.0 L 78.5,255.0 L 77.5,254.0 L 76.5,253.0 L 75.5,252.0 L 74.5,251.0 L 73.5,250.0 L 72.5,249.0 L 72.0,247.5 L 71.5,246.0 L 70.5,245.0 L 69.5,244.0 L 69.5,242.0 L 68.5,241.0 L 68.0,239.5 L 67.0,240.5 L 66.0,239.5 L 65.5,238.0 L 66.0,236.5 L 67.0,237.5 L 67.5,236.0 L 67.5,234.0 L 67.5,232.0 L 67.5,230.0 L 66.5,229.0 L 66.5,227.0 L 67.5,226.0 L 67.5,224.0 L 67.5,222.0 L 67.5,220.0 L 68.5,219.0 L 68.5,217.0 L 69.0,215.5 L 69.5,214.0 L 70.5,213.0 L 70.5,211.0 L 71.5,210.0 L 72.0,208.5 L 73.0,207.5 L 73.5,206.0 L 74.5,205.0 L 75.0,203.5 L 76.0,202.5 L 77.0,201.5 L 77.5,200.0 L 78.5,199.0 L 79.5,198.0 L 80.5,197.0 L 81.5,196.0 L 83.0,195.5 L 84.0,194.5 L 85.0,193.5 L 86.5,193.0 L 87.5,192.0 L 89.0,191.5 L 90.5,191.0 L 92.0,190.5 L 93.0,189.5 L 95.0,189.5 L 97.0,189.5 L 98.0,188.5 L 100.0,188.5 L 101.5,189.0 L 103.0,189.5 L 103.5,188.0 L 104.0,186.5 L 104.5,185.0 L 104.5,183.0 L 104.5,181.0 L 104.5,179.0 L 105.0,177.5 L 105.5,176.0 L 105.0,174.5 L 103.0,174.5 L 101.0,174.5 L 99.0,174.5 L 97.0,174.5 L 95.0,174.5 L 93.5,174.0 L 92.5,173.0 L 92.0,171.5 L 90.5,172.0 L 89.5,172.0 L 88.5,171.0 L 89.5,170.0 L 91.0,169.5 L 92.0,170.5 L 92.5,169.0 L 93.5,168.0 L 95.0,167.5 L 97.0,167.5 L 99.0,167.5 L 101.0,167.5 L 103.0,167.5 L 105.0,167.5 L 107.0,167.5 L 107.5,166.0 L 107.5,164.0 L 108.0,162.5 L 108.5,161.0 L 108.5,159.0 L 109.5,158.0 L 109.5,156.0 L 110.0,154.5 L 110.5,153.0 L 111.0,151.5 L 111.5,150.0 L 112.0,148.5 L 112.5,147.0 L 113.5,146.0 L 114.0,144.5 L 114.5,143.0 L 115.5,142.0 L 116.0,140.5 L 116.5,139.0 L 117.5,138.0 L 118.0,136.5 L 118.5,135.0 L 119.5,134.0 L 120.0,132.5 L 121.0,131.5 L 121.5,130.0 L 122.5,129.0 L 123.5,128.0 L 124.0,126.5 L 125.0,125.5 L 126.0,124.5 L 126.5,123.0 L 127.5,122.0 L 128.5,121.0 L 129.5,120.0 L 130.0,118.5 L 131.0,117.5 L 132.0,116.5 L 133.0,115.5 L 134.0,114.5 L 135.0,113.5 L 136.0,112.5 L 137.0,111.5 L 138.0,110.5 L 139.0,109.5 L 140.0,108.5 L 141.0,107.5 L 142.5,107.0 L 143.5,106.0 L 144.5,105.0 L 145.5,104.0 L 147.0,103.5 L 148.0,102.5 L 149.0,101.5 L 150.5,101.0 L 151.5,100.0 L 153.0,99.5 L 154.0,98.5 L 155.5,98.0 L 157.0,97.5 L 158.0,96.5 L 159.5,96.0 L 161.0,95.5 L 162.0,94.5 L 163.5,94.0 L 165.0,93.5 L 166.0,92.5 L 168.0,92.5 L 169.0,91.5 L 171.0,91.5 L 172.0,90.5 L 174.0,90.5 L 175.5,90.0 L 177.0,89.5 L 179.0,89.5 L 180.0,88.5 L 182.0,88.5 L 184.0,88.5 L 184.5,87.0 L 183.5,86.0 L 185.0,85.5 L 186.5,86.0 L 187.0,87.5 L 188.5,87.0 L 187.5,86.0 L 186.5,85.0 L 186.0,83.5 L 185.5,82.0 L 184.5,81.0 L 184.0,79.5 L 183.0,78.5 L 182.5,77.0 L 181.5,76.0 L 180.5,75.0 L 180.0,73.5 L 179.0,72.5 L 178.0,71.5 L 177.5,70.0 L 178.0,68.5 L 179.0,67.5 L 180.5,67.0 L 181.5,67.0 L 183.0,67.5 L 184.0,68.5 L 185.0,69.5 L 186.0,70.5 L 187.5,71.0 L 188.0,72.5 L 189.0,73.5 L 190.0,72.5 L 192.0,72.5 L 192.5,74.0 L 191.0,74.5 L 190.5,76.0 L 191.5,77.0 L 192.0,78.5 L 193.0,79.5 L 193.5,81.0 L 194.5,81.0 L 194.5,79.0 L 194.5,77.0 L 194.5,75.0 L 195.5,74.0 L 195.5,72.0 L 195.5,70.0 L 195.5,68.0 L 195.5,66.0 L 195.5,64.0 L 196.5,63.0 L 196.5,61.0 L 197.0,59.5 L 198.0,58.5 L 199.0,57.5 L 201.0,57.5 L 202.0,58.5 L 202.5,60.0 L 203.5,61.0 L 203.5,63.0 L 203.5,65.0 L 203.5,67.0 L 203.5,69.0 L 203.5,71.0 L 203.5,73.0 L 203.0,74.5 L 202.5,76.0 L 202.5,78.0 L 202.5,80.0 L 203.5,80.0 L 204.5,79.0 L 205.0,77.5 L 206.0,76.5 L 207.0,75.5 L 207.5,74.0 L 208.5,73.0 L 209.5,72.0 L 210.5,71.0 L 211.5,70.0 L 212.5,69.0 L 213.5,68.0 L 215.0,67.5 L 216.0,66.5 L 218.0,66.5 L 219.0,67.5 L 219.5,69.0 L 220.5,70.0 L 219.5,71.0 L 219.0,72.5 L 218.0,73.5 L 217.0,74.5 L 216.0,75.5 L 215.0,76.5 L 214.5,78.0 L 213.5,79.0 L 212.5,80.0 L 212.0,81.5 L 211.5,83.0 L 210.5,84.0 L 209.5,85.0 L 209.0,86.5 L 209.0,87.5 L 210.5,88.0 L 212.0,88.5 L 214.0,88.5 L 216.0,88.5 L 217.0,89.5 L 219.0,89.5 L 220.5,90.0 L 222.0,90.5 L 223.5,91.0 L 225.0,91.5 L 226.5,92.0 L 228.0,92.5 L 229.5,93.0 L 231.0,93.5 L 232.0,94.5 L 234.0,94.5 L 235.0,95.5 L 236.5,96.0 L 238.0,96.5 L 239.0,97.5 L 240.0,98.5 L 241.5,99.0 L 243.0,99.5 L 244.0,100.5 L 245.0,101.5 L 246.5,102.0 L 247.5,103.0 L 249.0,103.5 L 250.0,104.5 L 251.0,105.5 L 252.0,106.5 L 253.0,107.5 L 254.0,108.5 L 255.5,109.0 L 256.5,110.0 L 257.5,111.0 L 258.5,112.0 L 259.5,113.0 L 260.5,114.0 L 261.5,115.0 L 262.5,116.0 L 263.5,117.0 L 264.5,118.0 L 265.5,119.0 L 266.5,120.0 L 267.0,121.5 L 268.0,122.5 L 269.0,123.5 L 269.5,125.0 L 270.5,126.0 L 271.5,127.0 L 272.5,128.0 L 273.0,129.5 L 273.5,131.0 L 274.5,132.0 L 275.5,133.0 L 276.0,134.5 L 277.0,135.5 L 277.5,137.0 L 278.5,138.0 L 279.0,139.5 L 279.5,141.0 L 280.0,142.5 L 280.5,144.0 L 281.5,145.0 L 281.5,147.0 L 282.5,148.0 L 283.0,149.5 L 283.5,151.0 L 284.0,152.5 L 284.5,154.0 L 285.0,155.5 L 286.0,154.5 L 287.0,155.5 L 287.5,157.0 L 287.0,158.5 L 286.5,157.0 L 285.5,157.0 L 285.5,159.0 L 286.5,160.0 L 286.5,162.0 L 287.0,163.5 L 287.5,165.0 L 287.5,167.0 L 289.0,167.5 L 291.0,167.5 L 293.0,167.5 L 295.0,167.5 L 297.0,167.5 L 299.0,167.5 L 301.0,167.5 L 302.5,168.0 L 303.0,169.5 L 303.5,171.0 L 303.0,172.5 L 302.0,173.5 L 301.0,174.5 L 299.0,174.5 L 297.0,174.5 L 295.0,174.5 L 293.0,174.5 L 291.0,174.5 L 289.0,174.5 L 289.0,175.5 L 289.5,177.0 L 289.5,179.0 L 290.0,180.5 L 290.5,182.0 L 290.5,184.0 L 290.5,186.0 L 291.5,187.0 L 291.5,189.0 L 293.0,189.5 L 295.0,189.5 L 297.0,189.5 L 299.0,189.5 L 301.0,189.5 L 302.5,190.0 L 304.0,190.5 L 305.5,191.0 L 307.0,191.5 L 308.0,192.5 L 309.5,193.0 L 311.0,193.5 L 312.0,194.5 L 313.0,195.5 L 314.0,196.5 L 315.0,197.5 L 316.0,198.5 L 317.0,199.5 L 318.0,200.5 L 319.0,201.5 L 320.0,202.5 L 320.5,204.0 L 321.5,205.0 L 322.5,206.0 L 323.0,207.5 L 323.5,209.0 L 324.5,210.0 L 325.0,211.5 L 325.5,213.0 L 326.5,214.0 L 326.5,216.0 L 327.5,217.0 L 327.5,219.0 L 328.5,220.0 L 328.5,222.0 L 328.5,224.0 L 328.5,226.0 L 328.5,228.0 L 329.0,229.5 L 329.5,231.0 L 329.5,233.0 L 328.5,234.0 L 328.5,236.0 L 328.5,238.0 L 327.5,239.0 L 327.5,241.0 L 326.5,242.0 L 326.5,244.0 L 325.5,245.0 L 325.0,246.5 L 324.5,248.0 L 323.5,249.0 L 322.5,250.0 L 322.0,251.5 L 321.0,252.5 L 320.0,253.5 L 319.0,254.5 L 318.0,255.5 L 316.5,256.0 L 315.5,257.0 L 314.5,258.0 L 313.0,258.5 L 312.0,259.5 L 310.5,260.0 L 309.0,260.5 L 307.5,261.0 L 306.0,261.5 L 306.0,262.5 L 306.5,264.0 L 306.5,266.0 L 307.0,267.5 L 307.5,269.0 L 307.5,271.0 L 307.5,273.0 L 307.5,275.0 L 307.5,277.0 L 307.5,279.0 L 307.5,281.0 L 307.5,283.0 L 306.5,284.0 L 306.5,286.0 L 306.0,287.5 L 305.5,289.0 L 305.0,290.5 L 304.5,292.0 L 305.0,293.5 L 305.5,295.0 L 304.5,295.0 L 303.5,295.0 L 302.5,296.0 L 301.5,297.0 L 301.0,298.5 L 300.0,299.5 L 299.0,300.5 L 298.0,301.5 L 297.0,302.5 L 296.0,303.5 L 295.0,304.5 L 294.0,305.5 L 293.0,306.5 L 292.0,307.5 L 290.5,308.0 L 289.0,308.5 L 288.0,309.5 L 286.5,310.0 L 285.0,310.5 L 284.0,311.5 L 282.0,311.5 L 280.5,312.0 L 279.0,312.5 L 277.0,312.5 L 276.0,313.5 Z"/>
<path d="M 210.5,168.0 L 211.0,166.5 L 211.5,165.0 L 212.5,164.0 L 213.0,162.5 L 213.5,161.0 L 214.5,160.0 L 215.5,159.0 L 216.0,157.5 L 217.0,156.5 L 218.0,155.5 L 219.0,154.5 L 220.0,153.5 L 221.0,152.5 L 222.0,151.5 L 223.5,151.0 L 224.5,150.0 L 226.0,149.5 L 227.0,148.5 L 229.0,148.5 L 230.0,147.5 L 232.0,147.5 L 233.0,146.5 L 235.0,146.5 L 237.0,146.5 L 239.0,146.5 L 241.0,146.5 L 242.5,147.0 L 244.0,147.5 L 246.0,147.5 L 247.0,148.5 L 248.5,149.0 L 250.0,149.5 L 251.0,150.5 L 252.5,151.0 L 253.5,152.0 L 254.5,153.0 L 256.0,153.5 L 257.0,154.5 L 258.0,155.5 L 259.0,156.5 L 259.5,158.0 L 260.5,159.0 L 261.5,160.0 L 262.0,161.5 L 262.5,163.0 L 263.5,164.0 L 264.0,165.5 L 264.5,167.0 L 266.0,167.5 L 268.0,167.5 L 270.0,167.5 L 272.0,167.5 L 274.0,167.5 L 276.0,167.5 L 278.0,167.5 L 280.0,167.5 L 280.0,166.5 L 278.0,166.5 L 276.5,166.0 L 277.5,165.0 L 278.5,165.0 L 279.5,165.0 L 279.5,163.0 L 278.5,162.0 L 278.5,160.0 L 278.0,158.5 L 277.5,157.0 L 277.0,155.5 L 276.5,154.0 L 276.0,152.5 L 275.5,151.0 L 275.0,149.5 L 274.5,148.0 L 273.5,147.0 L 273.0,145.5 L 272.5,144.0 L 271.5,143.0 L 271.0,141.5 L 270.5,140.0 L 269.5,139.0 L 269.0,137.5 L 268.5,136.0 L 267.5,135.0 L 267.0,133.5 L 266.0,132.5 L 265.5,131.0 L 264.5,130.0 L 263.5,129.0 L 262.5,128.0 L 262.0,126.5 L 261.0,125.5 L 260.0,124.5 L 259.0,123.5 L 258.0,122.5 L 257.0,121.5 L 256.0,120.5 L 255.0,119.5 L 254.0,118.5 L 253.5,117.0 L 252.5,116.0 L 251.0,115.5 L 250.0,114.5 L 249.0,113.5 L 248.0,112.5 L 247.0,111.5 L 245.5,111.0 L 244.5,110.0 L 243.0,109.5 L 242.0,108.5 L 241.0,107.5 L 239.5,107.0 L 238.5,106.0 L 237.0,105.5 L 236.0,104.5 L 234.5,104.0 L 233.5,103.0 L 232.0,102.5 L 230.5,102.0 L 229.0,101.5 L 228.0,100.5 L 226.5,100.0 L 225.0,99.5 L 223.0,99.5 L 222.0,98.5 L 220.0,98.5 L 219.0,97.5 L 217.0,97.5 L 215.5,97.0 L 214.0,96.5 L 212.0,96.5 L 211.0,95.5 L 209.0,95.5 L 207.0,95.5 L 205.0,95.5 L 203.5,95.0 L 202.0,94.5 L 200.0,94.5 L 198.0,94.5 L 196.0,94.5 L 194.0,94.5 L 192.5,95.0 L 191.0,95.5 L 189.0,95.5 L 187.0,95.5 L 185.0,95.5 L 184.0,96.5 L 182.0,96.5 L 180.5,97.0 L 179.0,97.5 L 177.0,97.5 L 175.5,98.0 L 174.0,98.5 L 172.5,99.0 L 171.0,99.5 L 169.5,100.0 L 168.0,100.5 L 166.5,101.0 L 165.0,101.5 L 164.0,102.5 L 162.5,103.0 L 161.0,103.5 L 160.0,104.5 L 158.5,105.0 L 157.0,105.5 L 156.0,106.5 L 155.0,107.5 L 153.5,108.0 L 152.5,109.0 L 151.0,109.5 L 150.0,110.5 L 149.0,111.5 L 147.5,112.0 L 146.5,113.0 L 145.5,114.0 L 144.5,115.0 L 143.5,116.0 L 142.5,117.0 L 141.5,118.0 L 140.5,119.0 L 139.5,120.0 L 138.5,121.0 L 137.5,122.0 L 136.5,123.0 L 135.5,124.0 L 134.5,125.0 L 133.5,126.0 L 133.0,127.5 L 132.0,128.5 L 131.0,129.5 L 130.5,131.0 L 129.5,132.0 L 128.5,133.0 L 128.0,134.5 L 127.5,136.0 L 126.5,137.0 L 125.5,138.0 L 125.0,139.5 L 124.5,141.0 L 123.5,142.0 L 123.0,143.5 L 122.5,145.0 L 121.5,146.0 L 121.0,147.5 L 120.5,149.0 L 120.0,150.5 L 119.5,152.0 L 118.5,153.0 L 118.5,155.0 L 117.5,156.0 L 117.5,158.0 L 116.5,159.0 L 116.5,161.0 L 116.0,162.5 L 115.5,164.0 L 115.5,166.0 L 114.5,167.0 L 116.0,167.5 L 118.0,167.5 L 120.0,167.5 L 122.0,167.5 L 124.0,167.5 L 126.0,167.5 L 128.0,167.5 L 130.0,167.5 L 130.5,166.0 L 131.5,165.0 L 132.0,163.5 L 132.5,162.0 L 133.5,161.0 L 134.0,159.5 L 135.0,158.5 L 135.5,157.0 L 136.5,156.0 L 137.5,155.0 L 138.5,154.0 L 139.5,153.0 L 141.0,152.5 L 142.0,151.5 L 143.0,150.5 L 144.5,150.0 L 146.0,149.5 L 147.0,148.5 L 148.5,148.0 L 150.0,147.5 L 152.0,147.5 L 153.0,146.5 L 155.0,146.5 L 157.0,146.5 L 159.0,146.5 L 161.0,146.5 L 162.0,147.5 L 164.0,147.5 L 165.5,148.0 L 167.0,148.5 L 168.5,149.0 L 170.0,149.5 L 171.0,150.5 L 172.0,151.5 L 173.5,152.0 L 174.5,153.0 L 175.5,154.0 L 176.5,155.0 L 177.5,156.0 L 178.5,157.0 L 179.5,158.0 L 180.5,159.0 L 181.0,160.5 L 181.5,162.0 L 182.5,163.0 L 183.0,164.5 L 183.5,166.0 L 184.5,167.0 L 185.0,168.5 L 186.0,167.5 L 187.5,167.0 L 189.0,166.5 L 190.5,166.0 L 192.0,165.5 L 194.0,165.5 L 195.0,164.5 L 197.0,164.5 L 199.0,164.5 L 200.0,165.5 L 202.0,165.5 L 204.0,165.5 L 205.0,166.5 L 207.0,166.5 L 208.0,167.5 L 209.5,168.0 L 210.5,168.0 Z"/>
<path d="M 162.5,194.0 L 164.0,193.5 L 165.5,193.0 L 167.0,192.5 L 168.0,191.5 L 169.0,190.5 L 170.5,190.0 L 171.5,189.0 L 172.5,188.0 L 173.5,187.0 L 174.5,186.0 L 175.0,184.5 L 175.5,183.0 L 176.5,182.0 L 176.5,180.0 L 177.5,179.0 L 177.5,177.0 L 178.0,175.5 L 178.5,174.0 L 177.5,173.0 L 177.5,171.0 L 177.5,169.0 L 176.5,168.0 L 176.0,166.5 L 175.5,165.0 L 174.5,164.0 L 174.0,162.5 L 173.0,161.5 L 172.0,160.5 L 171.0,159.5 L 170.0,158.5 L 169.0,157.5 L 167.5,157.0 L 166.0,156.5 L 165.0,155.5 L 163.5,155.0 L 162.0,154.5 L 160.0,154.5 L 159.0,153.5 L 157.0,153.5 L 155.5,154.0 L 154.0,154.5 L 152.0,154.5 L 150.5,155.0 L 149.0,155.5 L 148.0,156.5 L 146.5,157.0 L 145.0,157.5 L 144.0,158.5 L 143.0,159.5 L 142.0,160.5 L 141.5,162.0 L 140.5,163.0 L 139.5,164.0 L 139.0,165.5 L 138.5,167.0 L 137.5,168.0 L 137.5,170.0 L 137.0,171.5 L 136.5,173.0 L 137.0,174.5 L 137.5,176.0 L 137.5,178.0 L 138.0,179.5 L 138.5,178.0 L 139.5,178.0 L 140.0,179.5 L 141.5,180.0 L 140.5,181.0 L 139.5,181.0 L 138.5,181.0 L 139.0,182.5 L 139.5,184.0 L 140.0,185.5 L 141.0,186.5 L 141.5,188.0 L 142.5,189.0 L 144.0,189.5 L 145.0,190.5 L 146.0,191.5 L 147.0,192.5 L 148.5,193.0 L 150.0,193.5 L 152.0,193.5 L 154.0,193.5 L 156.0,193.5 L 157.5,194.0 L 159.0,194.5 L 161.0,194.5 L 162.5,194.0 Z"/>
<path d="M 236.5,195.0 L 238.0,194.5 L 239.5,194.0 L 241.0,193.5 L 243.0,193.5 L 245.0,193.5 L 247.0,193.5 L 248.0,192.5 L 248.0,191.5 L 247.5,190.0 L 249.0,189.5 L 249.5,191.0 L 250.5,191.0 L 251.5,190.0 L 252.5,189.0 L 253.5,188.0 L 254.5,187.0 L 255.5,186.0 L 256.0,184.5 L 256.5,183.0 L 257.0,181.5 L 257.5,180.0 L 257.5,178.0 L 258.5,177.0 L 258.5,175.0 L 258.5,173.0 L 258.5,171.0 L 257.5,170.0 L 257.5,168.0 L 256.5,167.0 L 256.0,165.5 L 255.5,164.0 L 254.5,163.0 L 253.5,163.0 L 252.5,163.0 L 251.0,162.5 L 251.0,161.5 L 252.0,160.5 L 253.0,161.5 L 253.0,160.5 L 252.0,159.5 L 251.0,158.5 L 250.0,157.5 L 248.5,157.0 L 247.0,156.5 L 246.0,155.5 L 244.5,155.0 L 243.0,154.5 L 241.0,154.5 L 240.0,153.5 L 238.0,153.5 L 236.0,153.5 L 234.5,154.0 L 233.0,154.5 L 231.5,155.0 L 230.0,155.5 L 228.5,156.0 L 227.5,157.0 L 226.0,157.5 L 225.0,158.5 L 224.0,159.5 L 223.0,160.5 L 222.0,161.5 L 221.0,162.5 L 220.5,164.0 L 219.5,165.0 L 219.0,166.5 L 218.5,168.0 L 218.0,169.5 L 217.5,171.0 L 217.5,173.0 L 217.5,175.0 L 217.5,177.0 L 217.5,179.0 L 218.5,180.0 L 219.0,181.5 L 220.0,180.5 L 220.5,179.0 L 221.5,178.0 L 222.5,178.0 L 223.5,178.0 L 223.5,176.0 L 223.5,174.0 L 223.5,172.0 L 223.0,170.5 L 222.0,171.5 L 221.0,170.5 L 220.0,169.5 L 219.5,168.0 L 220.0,166.5 L 221.0,165.5 L 222.0,166.5 L 223.0,167.5 L 223.5,169.0 L 224.5,169.0 L 225.0,167.5 L 226.0,166.5 L 227.0,165.5 L 228.5,165.0 L 230.0,164.5 L 231.0,163.5 L 233.0,163.5 L 235.0,163.5 L 236.5,164.0 L 238.0,164.5 L 239.0,165.5 L 240.5,166.0 L 241.5,167.0 L 242.5,168.0 L 243.0,169.5 L 243.5,171.0 L 243.5,173.0 L 244.5,174.0 L 244.5,176.0 L 243.5,177.0 L 243.5,179.0 L 242.5,180.0 L 242.0,181.5 L 241.0,182.5 L 240.0,183.5 L 239.0,184.5 L 237.5,185.0 L 236.0,185.5 L 234.0,185.5 L 232.0,185.5 L 230.5,185.0 L 229.0,184.5 L 228.0,183.5 L 227.0,182.5 L 225.5,182.0 L 225.0,180.5 L 224.0,179.5 L 223.5,181.0 L 222.5,182.0 L 221.5,183.0 L 220.5,183.0 L 219.5,183.0 L 220.0,184.5 L 220.5,186.0 L 221.5,187.0 L 222.5,188.0 L 223.5,189.0 L 224.5,190.0 L 225.5,191.0 L 227.0,191.5 L 228.0,192.5 L 229.5,193.0 L 231.0,193.5 L 232.0,194.5 L 234.0,194.5 L 235.5,195.0 L 236.5,195.0 Z"/>
<path d="M 164.0,185.5 L 162.0,185.5 L 160.0,185.5 L 158.0,185.5 L 157.0,184.5 L 155.5,184.0 L 154.0,183.5 L 153.5,182.0 L 152.5,181.0 L 151.5,180.0 L 151.0,178.5 L 150.5,177.0 L 150.5,175.0 L 150.5,173.0 L 151.0,171.5 L 151.5,170.0 L 152.0,168.5 L 153.0,167.5 L 154.0,166.5 L 155.0,165.5 L 156.5,165.0 L 158.0,164.5 L 159.0,163.5 L 161.0,163.5 L 163.0,163.5 L 164.5,164.0 L 166.0,164.5 L 167.0,165.5 L 168.5,166.0 L 169.5,167.0 L 170.5,168.0 L 171.0,169.5 L 171.5,171.0 L 172.0,172.5 L 172.5,174.0 L 172.5,176.0 L 171.5,177.0 L 171.5,179.0 L 170.5,180.0 L 170.0,181.5 L 169.0,182.5 L 168.0,183.5 L 166.5,184.0 L 165.0,184.5 L 164.0,185.5 Z"/>
<path d="M 400.0,164.5 L 399.5,166.0 L 399.5,168.0 L 399.5,170.0 L 399.5,172.0 L 399.5,174.0 L 399.5,176.0 L 399.5,178.0 L 399.5,180.0 L 399.5,182.0 L 398.5,183.0 L 399.5,184.0 L 398.5,185.0 L 398.5,187.0 L 398.5,189.0 L 398.5,191.0 L 398.5,193.0 L 398.5,195.0 L 398.0,196.5 L 397.5,198.0 L 397.5,200.0 L 397.5,202.0 L 396.5,203.0 L 397.5,204.0 L 396.5,205.0 L 396.5,207.0 L 396.5,209.0 L 395.5,210.0 L 395.5,212.0 L 395.5,214.0 L 394.5,215.0 L 394.5,217.0 L 394.5,219.0 L 393.5,220.0 L 393.0,221.5 L 392.5,223.0 L 392.5,225.0 L 392.5,227.0 L 391.5,228.0 L 391.0,229.5 L 390.5,231.0 L 390.0,232.5 L 389.5,234.0 L 388.5,235.0 L 388.5,237.0 L 387.5,238.0 L 388.0,239.5 L 388.0,240.5 L 387.0,241.5 L 386.5,243.0 L 386.0,244.5 L 385.5,246.0 L 385.0,247.5 L 384.5,249.0 L 384.0,250.5 L 383.0,251.5 L 382.5,253.0 L 382.5,255.0 L 381.5,256.0 L 380.5,257.0 L 380.0,258.5 L 379.5,260.0 L 379.0,261.5 L 378.5,263.0 L 377.5,264.0 L 376.5,265.0 L 376.0,266.5 L 375.5,268.0 L 374.5,269.0 L 373.5,270.0 L 373.0,271.5 L 372.0,272.5 L 371.5,274.0 L 370.5,275.0 L 370.5,277.0 L 369.5,278.0 L 368.5,279.0 L 368.5,281.0 L 367.5,282.0 L 366.5,283.0 L 366.0,284.5 L 365.0,285.5 L 364.5,287.0 L 363.5,288.0 L 363.0,289.5 L 362.0,290.5 L 361.0,291.5 L 360.0,292.5 L 359.0,293.5 L 358.5,295.0 L 357.5,296.0 L 357.0,297.5 L 356.0,298.5 L 355.5,300.0 L 354.5,301.0 L 353.5,302.0 L 352.5,303.0 L 351.5,304.0 L 350.5,305.0 L 350.0,306.5 L 349.0,307.5 L 347.5,308.0 L 346.5,309.0 L 345.5,310.0 L 344.5,311.0 L 343.5,312.0 L 343.0,313.5 L 342.0,314.5 L 340.5,315.0 L 340.0,316.5 L 339.0,317.5 L 338.0,318.5 L 337.0,319.5 L 336.0,320.5 L 335.0,321.5 L 334.0,322.5 L 332.5,323.0 L 332.0,324.5 L 330.5,325.0 L 330.0,326.5 L 328.5,327.0 L 327.5,328.0 L 326.5,329.0 L 325.5,330.0 L 324.5,331.0 L 323.5,332.0 L 322.0,332.5 L 320.5,333.0 L 320.0,334.5 L 319.0,335.5 L 317.5,336.0 L 316.5,337.0 L 315.5,338.0 L 314.0,338.5 L 313.0,339.5 L 312.0,340.5 L 311.0,341.5 L 310.0,342.5 L 309.0,343.5 L 307.5,344.0 L 306.0,344.5 L 305.0,345.5 L 304.0,346.5 L 302.5,347.0 L 301.0,347.5 L 300.0,348.5 L 298.5,349.0 L 297.5,350.0 L 296.0,350.5 L 295.0,351.5 L 293.5,352.0 L 292.5,353.0 L 291.0,353.5 L 290.0,354.5 L 288.0,354.5 L 287.0,355.5 L 286.0,356.5 L 284.5,357.0 L 283.5,358.0 L 282.0,358.5 L 280.5,359.0 L 279.0,359.5 L 278.0,360.5 L 276.0,360.5 L 275.0,361.5 L 274.0,362.5 L 272.0,362.5 L 271.0,363.5 L 269.5,364.0 L 268.0,364.5 L 267.0,365.5 L 265.0,365.5 L 264.0,366.5 L 262.5,367.0 L 261.0,367.5 L 260.0,368.5 L 258.0,368.5 L 256.0,368.5 L 254.5,369.0 L 253.0,369.5 L 251.5,370.0 L 250.0,370.5 L 248.0,370.5 L 247.0,371.5 L 245.0,371.5 L 243.0,371.5 L 241.5,372.0 L 240.5,373.0 L 239.5,373.0 L 238.0,372.5 L 237.0,373.5 L 235.0,373.5 L 233.5,374.0 L 232.0,374.5 L 230.0,374.5 L 229.0,375.5 L 228.0,374.5 L 227.0,375.5 L 225.0,375.5 L 223.0,375.5 L 221.5,376.0 L 220.0,376.5 L 218.0,376.5 L 216.5,377.0 Z"/>
<path d="M 174.0,171.5 L 172.5,171.0 L 172.5,169.0 L 172.5,167.0 L 173.0,165.5 L 174.0,166.5 L 174.5,168.0 L 174.5,170.0 L 174.0,171.5 Z"/>
<path d="M 227.5,200.0 L 226.0,199.5 L 225.0,198.5 L 223.5,198.0 L 222.0,197.5 L 221.0,196.5 L 220.0,195.5 L 219.0,194.5 L 218.0,193.5 L 217.0,192.5 L 216.0,191.5 L 215.5,190.0 L 214.5,189.0 L 213.5,188.0 L 213.0,186.5 L 212.5,185.0 L 211.5,184.0 L 211.5,182.0 L 210.5,181.0 L 210.5,179.0 L 210.0,177.5 L 209.0,176.5 L 208.0,175.5 L 207.0,174.5 L 205.5,174.0 L 204.0,173.5 L 203.0,172.5 L 201.0,172.5 L 199.5,172.0 L 198.0,171.5 L 196.0,171.5 L 195.0,172.5 L 193.0,172.5 L 192.0,173.5 L 190.0,173.5 L 189.0,174.5 L 188.0,175.5 L 186.5,176.0 L 185.5,177.0 L 184.5,178.0 L 184.5,180.0 L 184.0,181.5 L 183.5,183.0 L 183.0,184.5 L 182.5,186.0 L 181.5,187.0 L 181.0,188.5 L 180.0,189.5 L 179.0,190.5 L 178.5,192.0 L 177.5,193.0 L 176.5,194.0 L 175.5,195.0 L 174.5,196.0 L 173.0,196.5 L 172.0,197.5 L 171.0,198.5 L 169.5,199.0 L 168.5,200.0 L 170.0,200.5 L 172.0,200.5 L 174.0,200.5 L 176.0,200.5 L 178.0,200.5 L 180.0,200.5 L 182.0,200.5 L 184.0,200.5 L 186.0,200.5 L 187.5,200.0 L 186.5,199.0 L 186.5,197.0 L 186.5,195.0 L 186.5,193.0 L 188.0,192.5 L 189.0,191.5 L 190.0,190.5 L 192.0,190.5 L 194.0,190.5 L 196.0,190.5 L 198.0,190.5 L 200.0,190.5 L 202.0,190.5 L 204.0,190.5 L 206.0,190.5 L 207.0,191.5 L 208.0,192.5 L 208.5,194.0 L 209.5,195.0 L 209.0,196.5 L 208.5,198.0 L 207.5,199.0 L 208.0,200.5 L 210.0,200.5 L 212.0,200.5 L 214.0,200.5 L 216.0,200.5 L 218.0,200.5 L 220.0,200.5 L 222.0,200.5 L 224.0,200.5 L 226.0,200.5 L 227.5,200.0 Z"/>
<path d="M 190.5,377.0 L 189.0,376.5 L 187.0,376.5 L 185.0,376.5 L 183.5,376.0 L 182.5,376.0 L 181.5,376.0 L 180.5,376.0 L 179.5,376.0 L 178.0,375.5 L 177.0,374.5 L 175.5,375.0 L 174.0,375.5 L 173.0,374.5 L 171.0,374.5 L 169.0,374.5 L 168.0,373.5 L 166.5,374.0 L 165.5,374.0 L 164.0,373.5 L 162.0,373.5 L 160.5,373.0 L 159.0,372.5 L 157.0,372.5 L 155.5,372.0 L 154.0,371.5 L 152.5,371.0 L 151.0,370.5 L 149.0,370.5 L 148.0,369.5 L 146.0,369.5 L 144.0,369.5 L 143.0,368.5 L 141.5,368.0 L 140.0,367.5 L 139.0,366.5 L 137.0,366.5 L 135.0,366.5 L 134.0,365.5 L 132.0,365.5 L 131.0,364.5 L 129.0,364.5 L 128.0,363.5 L 127.0,362.5 L 126.0,361.5 L 124.0,361.5 L 122.5,361.0 L 121.0,360.5 L 120.0,359.5 L 118.5,359.0 L 117.5,358.0 L 116.5,357.0 L 115.0,356.5 L 114.0,355.5 L 113.0,354.5 L 111.5,354.0 L 110.0,353.5 L 108.0,353.5 L 107.0,352.5 L 105.5,352.0 L 104.5,351.0 L 103.5,350.0 L 102.0,349.5 L 101.0,348.5 L 99.5,348.0 L 98.5,347.0 L 97.0,346.5 L 95.5,346.0 L 94.5,345.0 L 93.5,344.0 L 92.5,343.0 L 91.5,342.0 L 90.0,341.5 L 88.5,341.0 L 87.5,340.0 L 86.5,339.0 L 85.5,338.0 L 84.0,337.5 L 83.0,336.5 L 82.0,335.5 L 81.0,334.5 L 79.5,334.0 L 78.5,333.0 L 77.5,332.0 L 76.5,331.0 L 75.5,330.0 L 74.0,329.5 L 73.0,328.5 L 72.5,327.0 L 71.0,326.5 L 70.0,325.5 L 69.0,324.5 L 67.5,324.0 L 67.0,322.5 L 65.5,322.0 L 64.5,321.0 L 63.5,320.0 L 62.5,319.0 L 61.5,318.0 L 61.0,316.5 L 60.0,315.5 L 59.5,314.0 L 58.5,313.0 L 57.5,312.0 L 56.5,311.0 L 55.5,310.0 L 54.5,309.0 L 53.5,308.0 L 53.0,306.5 L 52.0,305.5 L 51.0,304.5 L 49.5,304.0 L 49.0,302.5 L 47.5,302.0 L 46.5,301.0 L 46.0,299.5 L 45.0,298.5 L 43.5,298.0 L 43.0,296.5 L 42.5,295.0 L 41.5,294.0 L 40.5,293.0 L 39.5,292.0 L 39.0,290.5 L 38.5,289.0 L 38.0,287.5 L 37.0,286.5 L 36.5,285.0 L 35.5,284.0 L 34.5,283.0 L 33.5,282.0 L 33.0,280.5 L 32.5,279.0 L 31.5,278.0 L 30.5,277.0 L 29.5,276.0 L 29.5,274.0 L 28.5,273.0 L 27.5,272.0 L 27.5,270.0 L 26.5,269.0 L 25.5,268.0 L 25.0,266.5 L 24.5,265.0 L 24.0,263.5 L 23.5,262.0 L 22.5,261.0 L 22.0,259.5 L 21.5,258.0 L 20.5,257.0 L 20.0,255.5 L 19.5,254.0 L 19.0,252.5 L 18.5,251.0 L 17.5,250.0 L 17.5,248.0 L 16.5,247.0 L 15.5,246.0 L 15.0,244.5 L 15.0,243.5 L 15.0,242.5 L 13.5,242.0 L 13.0,240.5 L 13.0,239.5 L 13.0,238.5 L 12.0,237.5 L 11.5,236.0 L 11.5,234.0 L 11.5,232.0 L 10.5,231.0 L 10.0,229.5 L 9.5,228.0 L 9.5,226.0 L 8.5,225.0 L 8.5,223.0 L 8.0,221.5 L 7.5,220.0 L 7.5,218.0 L 6.5,217.0 L 6.5,215.0 L 6.5,213.0 L 5.5,212.0 L 6.5,211.0 L 5.5,210.0 L 5.0,208.5 L 5.0,207.5 L 5.5,206.0 L 5.0,204.5 L 4.5,203.0 L 3.5,202.0 L 4.5,201.0 L 3.5,200.0 L 3.5,198.0 L 3.5,196.0 L 2.5,195.0 L 2.5,193.0 L 1.5,192.0 L 1.5,190.0 L 1.5,188.0 L 1.5,186.0 L 1.5,184.0 L 1.0,182.5 L 0.5,181.0 L 1.5,180.0 L 1.0,178.5 L 0.5,177.0 L 0.5,175.0 L 0.5,173.0 Z"/>
<path d="M 123.5,199.0 L 125.0,198.5 L 126.0,197.5 L 127.5,197.0 L 129.0,196.5 L 130.0,195.5 L 132.0,195.5 L 133.0,194.5 L 135.0,194.5 L 137.0,194.5 L 137.5,193.0 L 136.5,192.0 L 135.5,191.0 L 135.0,189.5 L 134.0,188.5 L 133.5,187.0 L 132.5,186.0 L 132.0,184.5 L 131.5,183.0 L 130.5,183.0 L 129.5,183.0 L 128.5,182.0 L 129.0,180.5 L 130.5,180.0 L 130.5,178.0 L 130.0,176.5 L 129.0,175.5 L 127.0,175.5 L 125.5,176.0 L 124.0,176.5 L 122.0,176.5 L 120.0,176.5 L 118.0,176.5 L 117.0,177.5 L 115.5,177.0 L 114.0,176.5 L 114.0,175.5 L 116.0,175.5 L 118.0,175.5 L 120.0,175.5 L 122.0,175.5 L 124.0,175.5 L 124.0,174.5 L 122.0,174.5 L 120.0,174.5 L 118.0,174.5 L 116.0,174.5 L 114.0,174.5 L 112.5,175.0 L 112.5,177.0 L 112.5,179.0 L 112.5,181.0 L 112.0,182.5 L 111.5,184.0 L 111.5,186.0 L 111.5,188.0 L 111.5,190.0 L 110.5,191.0 L 111.5,192.0 L 113.0,192.5 L 114.0,193.5 L 115.5,194.0 L 116.5,195.0 L 118.0,195.5 L 119.0,196.5 L 120.0,197.5 L 121.0,198.5 L 122.0,199.5 L 123.5,199.0 Z"/>
<path d="M 275.5,199.0 L 276.5,198.0 L 277.5,197.0 L 278.5,196.0 L 279.5,195.0 L 281.0,194.5 L 282.0,193.5 L 283.0,192.5 L 284.5,192.0 L 283.5,191.0 L 283.5,189.0 L 283.5,187.0 L 283.5,185.0 L 283.5,183.0 L 282.5,182.0 L 282.5,180.0 L 282.5,178.0 L 282.5,176.0 L 281.5,175.0 L 280.0,174.5 L 278.0,174.5 L 276.0,174.5 L 274.0,174.5 L 272.0,174.5 L 270.0,174.5 L 268.5,175.0 L 267.0,175.5 L 265.5,176.0 L 265.5,178.0 L 264.5,179.0 L 264.5,181.0 L 264.5,183.0 L 263.5,184.0 L 263.0,185.5 L 262.5,187.0 L 261.5,188.0 L 261.0,189.5 L 260.0,190.5 L 260.0,191.5 L 262.0,191.5 L 262.5,193.0 L 261.0,193.5 L 261.0,194.5 L 263.0,194.5 L 264.5,195.0 L 266.0,195.5 L 267.0,196.5 L 269.0,196.5 L 270.0,197.5 L 271.5,198.0 L 273.0,198.5 L 274.0,199.5 L 275.5,199.0 Z"/>
<path d="M 102.0,177.5 L 100.5,177.0 L 99.0,176.5 L 97.0,176.5 L 95.5,176.0 L 97.0,175.5 L 99.0,175.5 L 101.0,175.5 L 103.0,175.5 L 104.5,176.0 L 103.0,176.5 L 102.0,177.5 Z"/>
<path d="M 279.0,177.5 L 277.5,177.0 L 276.0,176.5 L 274.0,176.5 L 272.0,176.5 L 270.0,176.5 L 268.5,176.0 L 270.0,175.5 L 272.0,175.5 L 274.0,175.5 L 276.0,175.5 L 278.0,175.5 L 280.0,175.5 L 280.0,176.5 L 279.0,177.5 Z"/>
<path d="M 291.0,178.5 L 290.5,177.0 L 291.0,175.5 L 293.0,175.5 L 295.0,175.5 L 296.5,176.0 L 295.0,176.5 L 293.0,176.5 L 291.5,177.0 L 291.0,178.5 Z"/>
<path d="M 174.0,183.5 L 173.0,182.5 L 172.5,181.0 L 172.5,179.0 L 173.0,177.5 L 174.5,178.0 L 175.0,179.5 L 175.5,181.0 L 175.0,182.5 L 174.0,183.5 Z"/>
<path d="M 97.5,254.0 L 96.5,253.0 L 97.0,251.5 L 99.0,251.5 L 99.5,253.0 L 101.0,253.5 L 102.0,252.5 L 102.5,251.0 L 103.5,250.0 L 102.5,249.0 L 102.0,247.5 L 100.5,247.0 L 99.5,246.0 L 98.5,245.0 L 98.5,243.0 L 99.0,241.5 L 100.0,240.5 L 102.0,240.5 L 103.5,241.0 L 105.0,241.5 L 105.5,240.0 L 107.0,239.5 L 109.0,239.5 L 110.0,240.5 L 111.0,239.5 L 111.5,238.0 L 111.5,236.0 L 110.5,235.0 L 109.5,234.0 L 109.5,232.0 L 110.0,230.5 L 112.0,230.5 L 114.0,230.5 L 116.0,230.5 L 116.5,229.0 L 116.5,227.0 L 116.0,225.5 L 115.5,224.0 L 114.5,223.0 L 113.5,222.0 L 112.5,221.0 L 111.5,220.0 L 110.5,219.0 L 109.0,218.5 L 108.0,217.5 L 107.5,216.0 L 107.5,214.0 L 108.5,213.0 L 110.0,212.5 L 112.0,212.5 L 113.0,213.5 L 114.5,214.0 L 116.0,214.5 L 117.0,215.5 L 118.0,214.5 L 119.0,213.5 L 119.5,212.0 L 119.5,210.0 L 119.0,208.5 L 118.5,207.0 L 117.5,206.0 L 117.0,204.5 L 116.0,203.5 L 115.0,202.5 L 114.0,201.5 L 112.5,201.0 L 111.5,200.0 L 110.0,199.5 L 109.0,198.5 L 107.5,198.0 L 106.0,197.5 L 104.0,197.5 L 103.0,196.5 L 101.0,196.5 L 99.0,196.5 L 97.0,196.5 L 95.5,197.0 L 94.0,197.5 L 92.5,198.0 L 91.0,198.5 L 90.0,199.5 L 88.5,200.0 L 87.5,201.0 L 86.5,202.0 L 85.5,203.0 L 84.5,204.0 L 83.5,205.0 L 82.5,206.0 L 81.5,207.0 L 81.0,208.5 L 80.0,209.5 L 79.5,211.0 L 78.5,212.0 L 78.0,213.5 L 77.5,215.0 L 76.5,216.0 L 76.5,218.0 L 75.5,219.0 L 75.5,221.0 L 75.0,222.5 L 74.5,224.0 L 74.5,226.0 L 74.5,228.0 L 74.5,230.0 L 74.5,232.0 L 74.5,234.0 L 75.0,235.5 L 76.0,234.5 L 77.0,233.5 L 78.5,234.0 L 78.0,235.5 L 77.5,237.0 L 76.5,237.0 L 75.5,237.0 L 76.0,238.5 L 76.5,240.0 L 77.0,241.5 L 77.5,243.0 L 78.5,244.0 L 79.5,245.0 L 80.0,246.5 L 81.0,247.5 L 82.0,248.5 L 83.0,249.5 L 84.5,250.0 L 85.5,251.0 L 87.0,251.5 L 88.0,252.5 L 90.0,252.5 L 91.0,253.5 L 93.0,253.5 L 94.0,254.5 L 96.0,254.5 L 97.5,254.0 Z"/>
<path d="M 303.5,254.0 L 305.0,253.5 L 306.5,253.0 L 308.0,252.5 L 309.0,251.5 L 310.5,251.0 L 312.0,250.5 L 313.0,249.5 L 314.0,248.5 L 315.0,247.5 L 316.0,246.5 L 317.0,245.5 L 317.5,244.0 L 318.5,243.0 L 319.0,241.5 L 319.5,240.0 L 320.5,239.0 L 320.5,237.0 L 321.0,235.5 L 321.5,234.0 L 321.5,232.0 L 321.5,230.0 L 321.5,228.0 L 321.5,226.0 L 321.5,224.0 L 320.5,223.0 L 320.5,221.0 L 320.0,219.5 L 319.5,218.0 L 319.0,216.5 L 318.5,215.0 L 318.0,213.5 L 317.5,212.0 L 316.5,211.0 L 316.0,209.5 L 315.0,208.5 L 314.5,207.0 L 313.5,206.0 L 312.5,205.0 L 311.5,204.0 L 310.5,203.0 L 309.5,202.0 L 308.5,201.0 L 307.5,200.0 L 306.0,199.5 L 305.0,198.5 L 303.5,198.0 L 302.0,197.5 L 300.5,198.0 L 299.0,198.5 L 297.5,198.0 L 299.0,197.5 L 299.0,196.5 L 297.0,196.5 L 295.0,196.5 L 293.0,196.5 L 292.0,197.5 L 290.0,197.5 L 289.0,198.5 L 287.5,199.0 L 288.5,200.0 L 288.0,201.5 L 286.5,202.0 L 285.5,203.0 L 284.0,203.5 L 282.5,203.0 L 283.5,202.0 L 285.0,201.5 L 286.0,200.5 L 286.0,199.5 L 285.0,200.5 L 283.5,201.0 L 282.5,202.0 L 281.5,203.0 L 280.5,204.0 L 279.5,205.0 L 278.5,206.0 L 278.0,207.5 L 277.5,209.0 L 276.5,210.0 L 276.5,212.0 L 277.0,213.5 L 277.5,212.0 L 278.0,210.5 L 278.5,212.0 L 279.5,213.0 L 279.5,215.0 L 278.5,215.0 L 277.5,215.0 L 278.5,216.0 L 279.5,216.0 L 281.0,215.5 L 282.0,214.5 L 283.0,213.5 L 284.0,212.5 L 286.0,212.5 L 287.0,213.5 L 288.0,214.5 L 288.5,216.0 L 287.5,217.0 L 287.0,218.5 L 286.0,219.5 L 285.0,220.5 L 284.0,221.5 L 283.0,222.5 L 282.0,223.5 L 281.0,224.5 L 280.5,226.0 L 281.0,227.5 L 282.0,228.5 L 283.0,229.5 L 283.0,230.5 L 283.0,231.5 L 285.0,231.5 L 286.5,232.0 L 286.5,234.0 L 285.5,235.0 L 285.5,237.0 L 285.5,239.0 L 286.0,240.5 L 287.0,241.5 L 288.5,242.0 L 290.0,242.5 L 291.0,241.5 L 293.0,241.5 L 294.5,241.0 L 296.0,240.5 L 297.5,241.0 L 298.5,242.0 L 298.5,244.0 L 298.0,245.5 L 297.0,246.5 L 297.0,247.5 L 297.0,248.5 L 295.5,248.0 L 294.5,248.0 L 293.5,249.0 L 293.5,251.0 L 294.0,252.5 L 295.0,253.5 L 296.5,254.0 L 298.0,254.5 L 300.0,254.5 L 302.0,254.5 L 303.5,254.0 Z"/>
<path d="M 103.0,198.5 L 101.0,198.5 L 99.0,198.5 L 97.0,198.5 L 95.5,198.0 L 97.0,197.5 L 99.0,197.5 L 101.0,197.5 L 103.0,197.5 L 103.0,198.5 Z"/>
<path d="M 275.5,306.0 L 277.0,305.5 L 279.0,305.5 L 280.0,304.5 L 282.0,304.5 L 283.0,303.5 L 284.5,303.0 L 286.0,302.5 L 287.0,301.5 L 288.5,301.0 L 289.5,300.0 L 290.5,299.0 L 291.5,298.0 L 292.5,297.0 L 293.5,296.0 L 294.5,295.0 L 295.5,294.0 L 296.0,292.5 L 296.5,291.0 L 297.5,290.0 L 298.0,288.5 L 298.5,287.0 L 299.0,285.5 L 299.5,284.0 L 300.0,282.5 L 300.5,281.0 L 300.5,279.0 L 300.5,277.0 L 300.5,275.0 L 300.5,273.0 L 299.5,273.0 L 299.0,274.5 L 298.5,273.0 L 298.5,271.0 L 299.0,269.5 L 300.0,270.5 L 300.5,269.0 L 299.5,268.0 L 299.5,266.0 L 299.5,264.0 L 299.0,262.5 L 298.0,261.5 L 296.0,261.5 L 294.0,261.5 L 293.0,260.5 L 291.5,260.0 L 290.5,259.0 L 289.5,258.0 L 288.5,257.0 L 287.5,256.0 L 287.0,254.5 L 286.5,253.0 L 286.5,251.0 L 286.5,249.0 L 285.0,248.5 L 284.0,247.5 L 282.5,247.0 L 281.5,246.0 L 280.5,245.0 L 279.5,244.0 L 279.0,242.5 L 278.5,241.0 L 278.5,239.0 L 278.0,237.5 L 276.5,237.0 L 275.5,236.0 L 274.5,235.0 L 273.5,234.0 L 273.5,232.0 L 272.5,231.0 L 272.5,229.0 L 272.5,227.0 L 273.5,226.0 L 273.5,224.0 L 274.5,223.0 L 274.0,221.5 L 273.0,220.5 L 272.0,219.5 L 271.5,218.0 L 270.5,217.0 L 270.0,215.5 L 269.5,214.0 L 269.5,212.0 L 269.5,210.0 L 270.5,209.0 L 270.5,207.0 L 271.5,206.0 L 270.0,205.5 L 269.0,204.5 L 267.5,204.0 L 266.0,203.5 L 265.0,202.5 L 263.0,202.5 L 262.0,201.5 L 260.0,201.5 L 259.0,200.5 L 257.0,200.5 L 255.0,200.5 L 253.0,200.5 L 251.5,200.0 L 250.0,199.5 L 248.0,199.5 L 246.5,200.0 L 245.0,200.5 L 243.0,200.5 L 241.0,200.5 L 240.0,201.5 L 238.0,201.5 L 237.0,202.5 L 235.5,203.0 L 234.5,204.0 L 233.0,204.5 L 232.0,205.5 L 231.0,206.5 L 230.0,207.5 L 228.0,207.5 L 226.0,207.5 L 224.0,207.5 L 222.0,207.5 L 220.0,207.5 L 218.0,207.5 L 216.0,207.5 L 214.0,207.5 L 212.0,207.5 L 210.0,207.5 L 208.0,207.5 L 206.0,207.5 L 204.0,207.5 L 202.0,207.5 L 200.0,207.5 L 198.0,207.5 L 196.0,207.5 L 194.0,207.5 L 192.0,207.5 L 190.0,207.5 L 188.0,207.5 L 186.0,207.5 L 184.0,207.5 L 182.0,207.5 L 180.0,207.5 L 178.0,207.5 L 176.0,207.5 L 174.0,207.5 L 172.0,207.5 L 170.0,207.5 L 168.0,207.5 L 166.0,207.5 L 165.0,206.5 L 164.0,205.5 L 162.5,205.0 L 161.5,204.0 L 160.5,203.0 L 159.0,202.5 L 158.0,201.5 L 156.0,201.5 L 155.0,200.5 L 153.0,200.5 L 151.0,200.5 L 149.0,200.5 L 147.0,200.5 L 145.0,200.5 L 143.0,200.5 L 141.0,200.5 L 139.0,200.5 L 137.5,201.0 L 136.0,201.5 L 134.0,201.5 L 133.0,202.5 L 131.5,203.0 L 132.5,204.0 L 131.5,205.0 L 130.5,206.0 L 130.0,207.5 L 129.0,208.5 L 127.5,208.0 L 126.5,207.0 L 127.0,205.5 L 128.5,205.0 L 130.0,204.5 L 130.0,203.5 L 128.5,204.0 L 127.0,204.5 L 126.0,205.5 L 125.5,207.0 L 126.5,208.0 L 126.5,210.0 L 126.5,212.0 L 126.5,214.0 L 126.0,215.5 L 125.5,217.0 L 124.5,218.0 L 123.5,219.0 L 123.0,220.5 L 121.5,221.0 L 122.5,222.0 L 123.5,222.0 L 124.5,222.0 L 124.0,223.5 L 123.5,225.0 L 124.0,226.5 L 124.5,228.0 L 124.0,229.5 L 123.5,231.0 L 123.0,232.5 L 122.0,233.5 L 121.0,234.5 L 120.0,235.5 L 119.0,236.5 L 118.0,237.5 L 117.5,239.0 L 117.5,241.0 L 117.5,243.0 L 116.5,244.0 L 115.5,245.0 L 114.0,245.5 L 113.0,246.5 L 112.0,247.5 L 110.5,248.0 L 110.5,250.0 L 110.5,252.0 L 109.5,253.0 L 109.5,255.0 L 108.5,256.0 L 107.5,257.0 L 106.5,258.0 L 105.5,259.0 L 104.5,260.0 L 103.0,260.5 L 101.5,261.0 L 100.0,261.5 L 98.0,261.5 L 97.5,263.0 L 96.5,264.0 L 96.5,266.0 L 96.5,268.0 L 95.5,269.0 L 95.5,271.0 L 95.5,273.0 L 95.5,275.0 L 95.5,277.0 L 96.0,278.5 L 96.5,277.0 L 97.5,277.0 L 97.5,279.0 L 98.5,280.0 L 98.5,282.0 L 98.5,284.0 L 97.5,284.0 L 96.5,284.0 L 96.5,286.0 L 97.5,287.0 L 97.5,289.0 L 98.5,290.0 L 99.0,291.5 L 99.5,293.0 L 100.5,294.0 L 101.5,295.0 L 102.5,296.0 L 103.5,297.0 L 104.5,298.0 L 105.5,299.0 L 106.5,300.0 L 107.5,301.0 L 109.0,301.5 L 110.0,302.5 L 111.5,303.0 L 113.0,303.5 L 114.0,304.5 L 115.5,305.0 L 117.0,305.5 L 119.0,305.5 L 121.0,305.5 L 122.5,306.0 L 124.0,306.5 L 125.5,306.0 L 127.0,305.5 L 129.0,305.5 L 130.5,305.0 L 132.0,304.5 L 133.5,304.0 L 135.0,303.5 L 136.0,302.5 L 137.0,301.5 L 138.5,301.0 L 139.5,300.0 L 141.0,299.5 L 142.0,298.5 L 143.0,297.5 L 143.5,296.0 L 144.5,295.0 L 145.5,294.0 L 146.5,293.0 L 147.5,292.0 L 148.0,290.5 L 149.0,289.5 L 149.5,288.0 L 150.5,287.0 L 151.5,286.0 L 152.0,284.5 L 153.0,283.5 L 154.0,282.5 L 155.0,281.5 L 156.5,281.0 L 157.5,280.0 L 159.0,279.5 L 160.0,278.5 L 161.5,278.0 L 163.0,277.5 L 164.5,277.0 L 166.0,276.5 L 168.0,276.5 L 170.0,276.5 L 172.0,276.5 L 174.0,276.5 L 176.0,276.5 L 178.0,276.5 L 180.0,276.5 L 182.0,276.5 L 184.0,276.5 L 186.0,276.5 L 188.0,276.5 L 190.0,276.5 L 192.0,276.5 L 194.0,276.5 L 196.0,276.5 L 198.0,276.5 L 200.0,276.5 L 202.0,276.5 L 204.0,276.5 L 206.0,276.5 L 208.0,276.5 L 210.0,276.5 L 212.0,276.5 L 214.0,276.5 L 216.0,276.5 L 218.0,276.5 L 220.0,276.5 L 222.0,276.5 L 224.0,276.5 L 226.0,276.5 L 228.0,276.5 L 230.0,276.5 L 232.0,276.5 L 233.0,277.5 L 234.5,278.0 L 236.0,278.5 L 237.0,279.5 L 238.5,280.0 L 239.5,281.0 L 241.0,281.5 L 242.0,282.5 L 243.0,283.5 L 244.0,284.5 L 244.5,286.0 L 245.5,287.0 L 246.5,288.0 L 247.5,289.0 L 248.0,290.5 L 248.5,292.0 L 249.5,293.0 L 250.5,294.0 L 251.5,295.0 L 252.0,296.5 L 253.0,297.5 L 254.0,298.5 L 255.0,299.5 L 256.0,300.5 L 257.5,301.0 L 258.5,302.0 L 260.0,302.5 L 261.0,303.5 L 262.5,304.0 L 264.0,304.5 L 265.5,305.0 L 267.0,305.5 L 269.0,305.5 L 270.5,306.0 L 272.0,306.5 L 274.0,306.5 L 275.5,306.0 Z"/>
<path d="M 255.0,244.5 L 254.0,243.5 L 252.0,243.5 L 250.0,243.5 L 250.0,242.5 L 251.5,242.0 L 250.0,241.5 L 248.0,241.5 L 247.0,240.5 L 245.5,240.0 L 244.0,239.5 L 243.0,238.5 L 242.0,237.5 L 241.0,236.5 L 240.5,235.0 L 239.5,234.0 L 239.5,232.0 L 239.5,230.0 L 239.5,228.0 L 240.5,227.0 L 241.0,225.5 L 241.5,224.0 L 242.5,223.0 L 244.0,222.5 L 245.0,221.5 L 246.0,220.5 L 248.0,220.5 L 250.0,220.5 L 252.0,220.5 L 253.5,221.0 L 255.0,221.5 L 256.0,222.5 L 257.0,223.5 L 258.0,224.5 L 258.5,226.0 L 259.5,227.0 L 259.5,229.0 L 259.5,231.0 L 259.5,233.0 L 259.5,235.0 L 258.5,236.0 L 257.5,237.0 L 257.0,238.5 L 256.0,239.5 L 254.5,240.0 L 253.0,240.5 L 253.0,241.5 L 254.5,241.0 L 255.5,241.0 L 256.5,242.0 L 256.0,243.5 L 255.0,244.5 Z"/>
<path d="M 151.0,267.5 L 149.0,267.5 L 147.0,267.5 L 145.0,267.5 L 143.0,267.5 L 141.0,267.5 L 139.5,267.0 L 139.0,265.5 L 138.5,264.0 L 138.5,262.0 L 138.5,260.0 L 138.5,258.0 L 138.5,256.0 L 138.5,254.0 L 137.0,253.5 L 135.0,253.5 L 133.0,253.5 L 131.0,253.5 L 129.0,253.5 L 127.0,253.5 L 126.0,252.5 L 125.5,251.0 L 125.0,249.5 L 124.0,250.5 L 122.0,250.5 L 121.5,249.0 L 122.0,247.5 L 122.0,246.5 L 121.5,245.0 L 121.0,243.5 L 121.0,242.5 L 122.0,241.5 L 122.5,243.0 L 122.5,245.0 L 123.5,246.0 L 124.0,247.5 L 125.0,246.5 L 125.5,245.0 L 125.5,243.0 L 125.5,241.0 L 126.5,240.0 L 128.0,239.5 L 129.0,238.5 L 131.0,238.5 L 133.0,238.5 L 135.0,238.5 L 137.0,238.5 L 138.5,238.0 L 138.5,236.0 L 138.5,234.0 L 138.5,232.0 L 138.5,230.0 L 139.5,229.0 L 139.5,227.0 L 140.5,226.0 L 141.5,225.0 L 143.0,224.5 L 145.0,224.5 L 147.0,224.5 L 149.0,224.5 L 150.5,225.0 L 152.0,225.5 L 152.5,227.0 L 153.5,228.0 L 153.5,230.0 L 153.5,232.0 L 153.5,234.0 L 153.5,236.0 L 153.5,238.0 L 155.0,238.5 L 157.0,238.5 L 159.0,238.5 L 161.0,238.5 L 163.0,238.5 L 164.0,239.5 L 165.5,240.0 L 166.5,241.0 L 166.5,243.0 L 166.5,245.0 L 166.5,247.0 L 166.5,249.0 L 166.5,251.0 L 165.5,252.0 L 164.5,253.0 L 163.0,253.5 L 161.0,253.5 L 159.0,253.5 L 157.0,253.5 L 155.0,253.5 L 153.5,254.0 L 153.5,256.0 L 153.5,258.0 L 153.5,260.0 L 153.5,262.0 L 153.5,264.0 L 153.0,265.5 L 152.0,266.5 L 151.0,267.5 Z"/>
<path d="M 251.5,234.0 L 252.5,233.0 L 253.5,232.0 L 253.5,230.0 L 253.0,228.5 L 252.0,227.5 L 251.0,226.5 L 249.0,226.5 L 248.0,227.5 L 247.0,228.5 L 246.5,230.0 L 247.5,230.0 L 248.0,228.5 L 249.5,229.0 L 250.5,230.0 L 250.5,232.0 L 250.0,233.5 L 248.5,234.0 L 250.0,234.5 L 251.5,234.0 Z"/>
<path d="M 155.0,232.5 L 154.5,231.0 L 154.5,229.0 L 155.0,227.5 L 156.5,228.0 L 156.5,230.0 L 155.5,231.0 L 155.0,232.5 Z"/>
<path d="M 147.5,261.0 L 147.5,259.0 L 147.5,257.0 L 147.5,255.0 L 147.5,253.0 L 147.5,251.0 L 148.0,249.5 L 149.0,248.5 L 149.0,247.5 L 147.5,247.0 L 148.5,246.0 L 150.0,245.5 L 150.0,244.5 L 148.5,244.0 L 147.5,243.0 L 147.5,241.0 L 147.5,239.0 L 147.5,237.0 L 147.5,235.0 L 147.5,233.0 L 147.5,231.0 L 146.0,230.5 L 144.5,231.0 L 144.5,233.0 L 144.5,235.0 L 144.5,237.0 L 144.5,239.0 L 144.5,241.0 L 144.5,243.0 L 143.5,244.0 L 142.0,244.5 L 142.0,245.5 L 143.5,246.0 L 143.0,247.5 L 143.0,248.5 L 144.0,249.5 L 144.5,251.0 L 144.5,253.0 L 144.5,255.0 L 144.5,257.0 L 144.5,259.0 L 144.5,261.0 L 146.0,261.5 L 147.5,261.0 Z"/>
<path d="M 236.0,256.5 L 234.0,256.5 L 232.0,256.5 L 230.0,256.5 L 228.5,256.0 L 227.5,255.0 L 226.0,254.5 L 225.5,253.0 L 224.5,252.0 L 223.5,251.0 L 223.5,249.0 L 223.5,247.0 L 223.5,245.0 L 223.5,243.0 L 224.5,242.0 L 225.0,240.5 L 226.0,239.5 L 227.0,238.5 L 228.0,237.5 L 230.0,237.5 L 231.0,236.5 L 233.0,236.5 L 235.0,236.5 L 236.0,237.5 L 237.5,238.0 L 239.0,238.5 L 240.0,239.5 L 241.0,240.5 L 241.5,242.0 L 242.5,243.0 L 242.5,245.0 L 242.5,247.0 L 242.5,249.0 L 242.0,250.5 L 241.5,252.0 L 240.5,253.0 L 239.5,254.0 L 238.5,255.0 L 237.0,255.5 L 236.0,256.5 Z"/>
<path d="M 270.0,256.5 L 268.0,256.5 L 266.0,256.5 L 264.0,256.5 L 262.5,256.0 L 261.0,255.5 L 260.0,254.5 L 259.0,253.5 L 258.0,252.5 L 257.5,251.0 L 256.5,250.0 L 256.5,248.0 L 256.5,246.0 L 256.5,244.0 L 257.5,243.0 L 258.0,241.5 L 259.0,240.5 L 260.0,239.5 L 261.0,238.5 L 262.0,237.5 L 264.0,237.5 L 265.0,236.5 L 267.0,236.5 L 269.0,236.5 L 270.0,237.5 L 271.5,238.0 L 273.0,238.5 L 274.0,239.5 L 274.5,241.0 L 275.5,242.0 L 276.0,243.5 L 276.5,245.0 L 276.5,247.0 L 276.5,249.0 L 276.0,250.5 L 275.5,252.0 L 274.5,253.0 L 273.5,254.0 L 272.5,255.0 L 271.0,255.5 L 270.0,256.5 Z"/>
<path d="M 234.5,250.0 L 233.0,249.5 L 232.0,248.5 L 232.0,247.5 L 232.5,246.0 L 233.0,244.5 L 234.5,245.0 L 235.0,246.5 L 236.0,247.5 L 236.5,246.0 L 235.5,245.0 L 235.0,243.5 L 233.5,243.0 L 232.5,243.0 L 231.0,243.5 L 230.0,244.5 L 229.5,246.0 L 229.5,248.0 L 230.5,249.0 L 231.5,250.0 L 233.0,250.5 L 234.5,250.0 Z"/>
<path d="M 268.5,250.0 L 267.0,249.5 L 265.5,249.0 L 264.5,248.0 L 265.0,246.5 L 265.0,245.5 L 264.0,244.5 L 263.5,246.0 L 262.5,247.0 L 263.5,248.0 L 264.0,249.5 L 265.5,250.0 L 267.0,250.5 L 268.5,250.0 Z"/>
<path d="M 270.5,248.0 L 270.5,246.0 L 269.5,245.0 L 268.5,245.0 L 267.5,246.0 L 268.5,247.0 L 269.5,248.0 L 270.5,248.0 Z"/>
<path d="M 278.0,250.5 L 277.5,249.0 L 277.5,247.0 L 278.0,245.5 L 280.0,245.5 L 280.5,247.0 L 279.5,248.0 L 278.5,249.0 L 278.0,250.5 Z"/>
<path d="M 251.0,273.5 L 249.0,273.5 L 247.5,273.0 L 246.0,272.5 L 245.0,271.5 L 243.5,271.0 L 242.5,270.0 L 241.5,269.0 L 240.5,268.0 L 240.0,266.5 L 239.5,265.0 L 239.5,263.0 L 239.5,261.0 L 240.5,260.0 L 240.5,258.0 L 241.5,257.0 L 242.0,255.5 L 243.5,255.0 L 244.5,254.0 L 246.0,253.5 L 247.0,252.5 L 249.0,252.5 L 251.0,252.5 L 253.0,252.5 L 254.0,253.5 L 255.5,254.0 L 256.5,255.0 L 257.5,256.0 L 258.5,257.0 L 259.0,258.5 L 259.5,260.0 L 259.5,262.0 L 259.5,264.0 L 259.5,266.0 L 259.0,267.5 L 258.0,268.5 L 257.0,269.5 L 256.0,270.5 L 255.0,271.5 L 254.0,272.5 L 252.0,272.5 L 251.0,273.5 Z"/>
<path d="M 155.0,258.5 L 154.5,257.0 L 154.5,255.0 L 156.0,254.5 L 157.5,255.0 L 156.5,256.0 L 156.0,257.5 L 155.0,258.5 Z"/>
<path d="M 251.5,266.0 L 252.5,265.0 L 253.5,264.0 L 253.5,262.0 L 253.0,260.5 L 252.0,259.5 L 250.5,259.0 L 249.5,259.0 L 248.0,259.5 L 247.0,260.5 L 247.0,261.5 L 249.0,261.5 L 250.5,262.0 L 250.5,264.0 L 249.5,265.0 L 248.5,266.0 L 250.0,266.5 L 251.5,266.0 Z"/>
<path d="M 308.0,266.5 L 307.5,265.0 L 307.5,263.0 L 308.0,261.5 L 310.0,261.5 L 310.5,263.0 L 309.5,264.0 L 308.5,265.0 L 308.0,266.5 Z"/>
</g></svg>